<?xml version="1.0" standalone="no"?>
<!DOCTYPE svg PUBLIC "-//W3C//DTD SVG 20010904//EN"
 "http://www.w3.org/TR/2001/REC-SVG-20010904/DTD/svg10.dtd">
<svg version="1.0" xmlns="http://www.w3.org/2000/svg"
 width="1200.000000pt" height="800.000000pt" viewBox="0 0 1200.000000 800.000000"
 preserveAspectRatio="xMidYMid meet">
<metadata>
Created by potrace 1.16, written by Peter Selinger 2001-2019
</metadata>
<g transform="translate(0.000000,800.000000) scale(0.100000,-0.100000)"
fill="#000000" stroke="none">
<path d="M6670 7660 c0 -116 3 -140 15 -140 11 0 15 16 17 66 3 59 6 69 30 87
43 32 58 11 58 -79 0 -59 3 -74 15 -74 12 0 15 16 15 84 0 112 -22 136 -90
101 l-30 -16 0 56 c0 42 -3 55 -15 55 -13 0 -15 -22 -15 -140z"/>
<path d="M7220 7660 c0 -118 2 -140 15 -140 12 0 15 13 15 56 0 63 12 92 43
103 37 14 47 -5 47 -85 0 -67 2 -74 20 -74 18 0 20 7 20 69 0 38 -4 81 -10 95
-12 33 -52 43 -85 22 -13 -9 -27 -16 -30 -16 -3 0 -5 25 -5 55 0 42 -3 55 -15
55 -13 0 -15 -22 -15 -140z"/>
<path d="M7630 7660 c0 -116 3 -140 15 -140 11 0 15 16 17 66 3 59 6 69 30 87
43 32 58 11 58 -79 0 -59 3 -74 15 -74 12 0 15 16 15 84 0 112 -22 136 -90
101 l-30 -16 0 56 c0 42 -3 55 -15 55 -13 0 -15 -22 -15 -140z"/>
<path d="M2700 7649 l0 -131 70 4 c50 3 77 9 97 24 59 44 65 153 12 206 -25
26 -34 28 -103 28 l-76 0 0 -131z m144 82 c45 -49 37 -139 -14 -166 -16 -8
-43 -15 -60 -15 l-30 0 0 100 0 100 43 0 c30 0 49 -6 61 -19z"/>
<path d="M2993 7713 c-13 -2 -23 -11 -23 -19 0 -11 9 -13 39 -8 34 5 40 4 46
-16 8 -25 -7 -40 -40 -40 -53 0 -84 -60 -49 -94 18 -19 65 -21 82 -4 9 9 15 9
24 0 14 -14 48 -16 48 -3 0 6 -4 12 -9 15 -4 3 -11 38 -13 77 -7 93 -24 108
-105 92z"/>
<path d="M3890 7707 c-54 -28 -57 -139 -5 -173 30 -20 109 -16 113 6 2 12 -6
14 -42 12 -36 -3 -46 0 -60 19 -9 13 -16 27 -16 31 0 5 27 8 60 8 59 0 60 0
60 29 0 57 -60 94 -110 68z"/>
<path d="M4580 7713 c-8 -3 -25 -15 -37 -26 -34 -30 -32 -109 2 -142 47 -48
135 -25 151 40 9 36 -3 89 -24 109 -20 18 -69 28 -92 19z"/>
<path d="M4818 7706 c-16 -8 -28 -11 -28 -5 0 5 -9 9 -20 9 -19 0 -20 -7 -20
-95 0 -88 2 -95 20 -95 17 0 19 8 22 66 3 60 6 69 31 87 39 30 51 12 55 -78 3
-56 8 -75 18 -75 11 0 14 19 14 84 0 76 -2 86 -22 100 -28 20 -36 20 -70 2z"/>
<path d="M5293 7710 c-36 -15 -27 -29 18 -27 30 1 44 -3 53 -16 13 -20 -4 -37
-39 -37 -34 0 -65 -28 -65 -59 0 -48 43 -66 93 -40 16 9 22 9 25 0 4 -13 52
-15 52 -2 0 5 -7 14 -15 21 -10 9 -15 32 -15 74 0 33 -4 67 -8 74 -11 17 -71
24 -99 12z"/>
<path d="M7034 7710 c-82 -33 -66 -180 20 -180 17 0 37 5 44 12 19 19 25 2 10
-29 -12 -25 -19 -28 -61 -28 -37 0 -47 -3 -45 -15 2 -10 18 -16 51 -18 39 -3
51 1 72 22 24 24 25 31 25 130 l0 105 -27 -1 c-16 0 -37 2 -48 5 -11 4 -30 2
-41 -3z"/>
<path d="M7873 7713 c-14 -3 -23 -12 -23 -23 0 -16 4 -17 29 -7 37 14 63 3 59
-25 -2 -16 -12 -24 -35 -29 -18 -3 -40 -12 -48 -19 -18 -15 -20 -61 -3 -78 15
-15 53 -16 78 -2 13 7 21 7 25 0 8 -13 55 -13 55 0 0 6 -7 13 -15 16 -11 5
-15 23 -15 75 0 59 -3 70 -22 83 -22 16 -41 18 -85 9z"/>
<path d="M8854 7710 c-50 -21 -69 -92 -39 -149 16 -33 33 -41 81 -41 107 0
115 178 9 195 -16 2 -40 0 -51 -5z"/>
<path d="M9092 7704 c-12 -8 -22 -10 -22 -5 0 6 -9 11 -20 11 -19 0 -20 -7
-20 -95 0 -88 1 -95 20 -95 18 0 20 7 20 63 0 34 4 67 8 72 16 22 40 35 56 29
13 -5 16 -21 16 -85 0 -72 2 -79 20 -79 18 0 20 7 20 70 0 63 2 71 25 86 41
27 55 6 55 -82 0 -59 3 -74 15 -74 12 0 15 17 15 90 0 88 -1 91 -26 102 -21
10 -31 9 -56 -5 -27 -15 -32 -15 -51 -2 -27 19 -47 19 -75 -1z"/>
<path d="M3378 7619 c32 -84 34 -94 23 -126 -14 -37 -10 -49 11 -40 15 5 113
245 105 254 -15 14 -34 -10 -56 -68 -20 -52 -26 -60 -32 -44 -5 11 -18 41 -28
68 -14 33 -26 47 -40 47 -18 0 -16 -7 17 -91z"/>
<path d="M5693 7695 c4 -8 16 -50 28 -95 29 -105 48 -108 79 -14 25 73 29 72
51 -14 11 -44 16 -52 33 -50 16 2 26 22 48 93 15 50 28 91 28 93 0 1 -6 2 -14
2 -9 0 -23 -27 -37 -67 l-23 -68 -20 68 c-17 57 -23 67 -40 65 -15 -2 -25 -19
-40 -68 l-20 -65 -20 68 c-15 52 -24 67 -39 67 -13 0 -17 -5 -14 -15z"/>
<path d="M5970 7703 c0 -4 7 -30 15 -58 9 -27 20 -67 26 -87 7 -27 15 -38 29
-38 15 0 23 14 36 60 9 33 20 63 24 65 4 2 15 -25 25 -60 25 -94 45 -90 81 18
15 45 29 88 32 96 3 8 -1 12 -13 10 -12 -3 -25 -25 -40 -69 l-22 -65 -17 54
c-9 30 -16 61 -16 68 0 7 -10 13 -22 13 -20 0 -26 -11 -44 -68 l-21 -67 -19
65 c-13 43 -26 66 -37 68 -9 2 -17 0 -17 -5z"/>
<path d="M6250 7698 c0 -7 11 -49 24 -93 18 -62 27 -81 43 -83 17 -2 23 7 37
63 10 36 22 65 27 65 5 0 9 -6 9 -13 0 -7 7 -37 15 -65 25 -82 44 -71 82 43
28 85 29 95 14 95 -13 0 -23 -16 -36 -60 -10 -33 -21 -60 -26 -60 -4 0 -13 26
-21 58 -11 44 -18 58 -35 60 -17 3 -23 -7 -39 -62 -10 -36 -22 -62 -25 -58 -4
4 -14 33 -23 65 -11 36 -22 57 -31 57 -8 0 -15 -6 -15 -12z"/>
<path d="M1102 5017 c-9 -10 25 -72 138 -257 135 -221 177 -277 174 -229 -1
14 -291 499 -299 499 -1 0 -7 -6 -13 -13z"/>
<path d="M484 4585 c-110 -130 -144 -165 -164 -166 -15 0 -35 -13 -52 -33
l-27 -33 29 -28 c28 -27 31 -27 48 -12 24 22 32 21 32 -2 0 -24 -25 -45 -45
-37 -8 3 -15 1 -15 -4 0 -16 56 -11 70 5 17 20 5 73 -23 103 l-22 25 28 -5
c25 -5 38 8 165 158 75 90 137 169 137 176 0 35 -36 2 -161 -147z"/>
<path d="M8455 4478 c-76 -128 -144 -242 -152 -254 -11 -18 -11 -23 1 -33 12
-10 39 30 166 240 136 227 161 279 131 279 -5 0 -71 -105 -146 -232z"/>
<path d="M6656 4412 c-234 -345 -258 -383 -246 -397 10 -13 38 22 162 205 134
197 162 251 131 250 -4 -1 -25 -26 -47 -58z"/>
<path d="M11101 4156 c-139 -285 -163 -347 -134 -346 14 1 315 630 309 645 -3
8 -9 15 -13 15 -4 0 -77 -142 -162 -314z"/>
<path d="M1473 4385 c-5 -14 285 -655 306 -678 4 -4 13 -2 19 5 8 11 -26 93
-146 351 -86 185 -161 337 -165 337 -4 0 -10 -7 -14 -15z"/>
<path d="M9802 4378 c-7 -9 38 -230 159 -773 92 -418 169 -765 171 -772 2 -9
7 -9 19 0 14 11 -2 93 -155 779 -94 422 -174 769 -177 773 -3 3 -11 0 -17 -7z"/>
<path d="M7152 4227 c-10 -12 18 -135 154 -668 91 -360 169 -657 173 -661 3
-4 12 -4 19 1 9 5 -28 164 -153 657 -91 357 -169 657 -173 668 -7 16 -9 16
-20 3z"/>
<path d="M8067 3548 c-126 -397 -163 -525 -155 -535 6 -8 14 -10 18 -6 4 4 80
239 170 521 143 451 161 515 148 528 -13 13 -35 -49 -181 -508z"/>
<path d="M6170 3719 c-120 -162 -140 -194 -128 -205 12 -12 35 15 152 174 77
103 139 193 140 201 3 43 -36 2 -164 -170z"/>
<path d="M10865 3579 c-15 -63 -92 -382 -171 -709 -124 -516 -141 -597 -129
-609 12 -13 15 -13 19 0 6 15 313 1286 329 1358 7 34 6 46 -6 58 -13 13 -18 2
-42 -98z"/>
<path d="M1852 3568 c-6 -6 -12 -18 -12 -25 0 -11 304 -1161 326 -1237 5 -16
8 -17 21 -3 13 13 -5 87 -152 638 -91 343 -167 628 -168 632 -1 4 -8 2 -15 -5z"/>
<path d="M3603 3383 c-39 -54 -106 -150 -151 -213 -62 -88 -78 -118 -70 -128
15 -17 13 -19 158 188 68 96 131 187 141 201 16 23 17 28 5 38 -12 10 -27 -6
-83 -86z"/>
<path d="M5797 2814 c-135 -471 -165 -589 -156 -601 10 -11 14 -12 19 -1 4 7
80 271 171 585 146 512 162 574 148 588 -13 13 -33 -47 -182 -571z"/>
<path d="M4504 3145 c-3 -8 63 -191 146 -407 84 -216 156 -404 162 -417 8 -21
11 -23 23 -10 13 12 -7 69 -147 432 -89 229 -165 417 -170 417 -5 0 -11 -7
-14 -15z"/>
<path d="M3141 2595 c-137 -291 -162 -356 -134 -355 13 1 315 650 309 666 -3
7 -9 14 -13 14 -5 0 -77 -146 -162 -325z"/>
<path d="M10204 2686 c-3 -9 56 -104 142 -230 117 -172 150 -214 160 -205 8 6
10 17 6 25 -26 46 -288 424 -295 424 -4 0 -10 -6 -13 -14z"/>
<path d="M4905 2190 c-8 -13 8 -33 152 -185 107 -112 143 -139 143 -105 0 9
-266 293 -279 298 -5 2 -12 -2 -16 -8z"/>
<path d="M2244 2166 c-6 -16 276 -386 291 -382 6 1 10 10 10 19 0 17 -274 376
-288 377 -4 0 -10 -6 -13 -14z"/>
<path d="M2762 1969 c-90 -108 -141 -177 -138 -186 3 -8 10 -13 15 -11 5 2 72
79 150 172 114 135 139 171 130 182 -6 8 -12 14 -13 14 0 0 -65 -77 -144 -171z"/>
<path d="M810 439 l0 -82 45 6 c60 6 85 29 85 78 0 52 -30 79 -87 79 l-43 0 0
-81z"/>
<path d="M3470 440 c0 -77 1 -80 24 -80 48 0 85 20 96 54 20 63 -14 106 -84
106 l-36 0 0 -80z"/>
</g>
</svg>
